<svg width="40" height="40" viewBox="0 0 40 40" fill="none" xmlns="http://www.w3.org/2000/svg">
<path d="M16.7122 29.4897C22.6708 29.4897 27.5011 26.1101 27.5011 21.9411C27.5011 17.7722 22.6708 14.3926 16.7122 14.3926C10.7537 14.3926 5.92334 17.7722 5.92334 21.9411C5.92334 26.1101 10.7537 29.4897 16.7122 29.4897Z" fill="#FCD17A"/>
<path d="M16.7122 25.0385C22.6708 25.0385 27.5011 21.6589 27.5011 17.49C27.5011 13.321 22.6708 9.94141 16.7122 9.94141C10.7537 9.94141 5.92334 13.321 5.92334 17.49C5.92334 21.6589 10.7537 25.0385 16.7122 25.0385Z" fill="#FEE8BC"/>
<path d="M16.7117 20.5854C22.6703 20.5854 27.5006 17.2058 27.5006 13.0368C27.5006 8.86788 22.6703 5.48828 16.7117 5.48828C10.7532 5.48828 5.92285 8.86788 5.92285 13.0368C5.92285 17.2058 10.7532 20.5854 16.7117 20.5854Z" fill="#FCD17A"/>
<path d="M25.3948 34.5083C30.1902 34.5083 34.0776 30.6208 34.0776 25.8254C34.0776 21.03 30.1902 17.1426 25.3948 17.1426C20.5994 17.1426 16.7119 21.03 16.7119 25.8254C16.7119 30.6208 20.5994 34.5083 25.3948 34.5083Z" fill="#FBB62D"/>
<path d="M21.8174 23.5039L23.5562 28.5155L25.3973 23.5039L27.2383 28.5155L28.9768 23.5039" stroke="white" stroke-width="1.36946" stroke-linecap="round" stroke-linejoin="round"/>
<path d="M21.1001 26.0098H22.3273" stroke="white" stroke-width="1.36946" stroke-linecap="round" stroke-linejoin="round"/>
<path d="M28.4619 26.0098H29.6891" stroke="white" stroke-width="1.36946" stroke-linecap="round" stroke-linejoin="round"/>
</svg>
