<svg width="40" height="40" viewBox="0 0 40 40" fill="none" xmlns="http://www.w3.org/2000/svg">
<path d="M13.2851 9.00071C12.5898 7.72149 13.5158 6.16406 14.9718 6.16406H25.027C26.483 6.16406 27.409 7.72149 26.7136 9.00071L24.1227 13.767H15.876L13.2851 9.00071Z" fill="#279D47"/>
<path d="M33.6927 24.3947C33.6927 31.0704 27.563 33.84 20.0004 33.84C12.4378 33.84 6.30615 31.0704 6.30615 24.3947C6.30615 17.719 12.6255 11.0293 20.1881 11.0293C27.7507 11.0293 33.6927 18.6138 33.6927 24.3947Z" fill="#4ABB69"/>
<path d="M14.5527 19.3633L17.2009 26.9959L20.0049 19.3633L22.8088 26.9959L25.4565 19.3633" stroke="white" stroke-width="2.19403" stroke-linecap="round" stroke-linejoin="round"/>
<path d="M13.4585 23.1738H15.3276" stroke="white" stroke-width="2.19403" stroke-linecap="round" stroke-linejoin="round"/>
<path d="M24.6709 23.1738H26.54" stroke="white" stroke-width="2.19403" stroke-linecap="round" stroke-linejoin="round"/>
</svg>
